/* XPM */
static char * C:\Users\user\Desktop\bush_xpm[] = {
"72 72 9 1",
" 	c None",
".	c #105828",
"+	c #287828",
"@	c #104030",
"#	c #40A830",
"$	c #003028",
"%	c #105040",
"&	c #58D038",
"*	c #70F840",
"         ...++++++...@@@@@@@@@@@@............+++++++++++++++...         ",
"         ...++++++...@@@@@@@@@@@@............+++++++++++++++...         ",
"         ...++++++...@@@@@@@@@@@@............+++++++++++++++...         ",
"      +++++++++######+++...$$$######+++...$$$$$$@@@.........            ",
"      +++++++++######+++...$$$######+++...$$$$$$@@@.........            ",
"      +++++++++######+++...$$$######+++...$$$$$$@@@.........            ",
"      @@@@@@......@@@@@@%%%######...$$$$$$$$$+++++++++#########@@@      ",
"      @@@@@@......@@@@@@%%%######...$$$$$$$$$+++++++++#########@@@      ",
"      @@@@@@......@@@@@@%%%######...$$$$$$$$$+++++++++#########@@@      ",
"   .........######++++++...@@@...###&&&&&&&&&&&&###+++++++++######@@@   ",
"   .........######++++++...@@@...###&&&&&&&&&&&&###+++++++++######@@@   ",
"   .........######++++++...@@@...###&&&&&&&&&&&&###+++++++++######@@@   ",
"+++@@@###+++......+++&&&######******&&&***************###@@@@@@++++++...",
"+++@@@###+++......+++&&&######******&&&***************###@@@@@@++++++...",
"+++@@@###+++......+++&&&######******&&&***************###@@@@@@++++++...",
"@@@###&&&######+++++++++###***&&&###++++++++++++###############@@@......",
"@@@###&&&######+++++++++###***&&&###++++++++++++###############@@@......",
"@@@###&&&######+++++++++###***&&&###++++++++++++###############@@@......",
"+++&&&###+++&&&&&&&&&######+++++++++++++++###&&&******&&&&&&&&&###...   ",
"+++&&&###+++&&&&&&&&&######+++++++++++++++###&&&******&&&&&&&&&###...   ",
"+++&&&###+++&&&&&&&&&######+++++++++++++++###&&&******&&&&&&&&&###...   ",
"+++###++++++***&&&&&&&&&############&&&&&&###+++######******&&&&&&###@@@",
"+++###++++++***&&&&&&&&&############&&&&&&###+++######******&&&&&&###@@@",
"+++###++++++***&&&&&&&&&############&&&&&&###+++######******&&&&&&###@@@",
"+++++++++***&&&&&&***&&&+++&&&***&&&&&&&&&&&&+++++++++######***&&&&&&@@@",
"+++++++++***&&&&&&***&&&+++&&&***&&&&&&&&&&&&+++++++++######***&&&&&&@@@",
"+++++++++***&&&&&&***&&&+++&&&***&&&&&&&&&&&&+++++++++######***&&&&&&@@@",
"+++      ***&&&******&&&+++&&&***&&&&&&******&&&+++++++++&&&+++###&&&###",
"+++      ***&&&******&&&+++&&&***&&&&&&******&&&+++++++++&&&+++###&&&###",
"+++      ***&&&******&&&+++&&&***&&&&&&******&&&+++++++++&&&+++###&&&###",
"      &&&*********&&&###+++&&&&&&***&&&******&&&+++############+++###&&&",
"      &&&*********&&&###+++&&&&&&***&&&******&&&+++############+++###&&&",
"      &&&*********&&&###+++&&&&&&***&&&******&&&+++############+++###&&&",
"   ###*********&&&###++++++&&&&&&******&&&******&&&###&&&&&&+++#########",
"   ###*********&&&###++++++&&&&&&******&&&******&&&###&&&&&&+++#########",
"   ###*********&&&###++++++&&&&&&******&&&******&&&###&&&&&&+++#########",
"   &&&******+++###+++&&&###+++&&&***************&&&###&&&***&&&+++######",
"   &&&******+++###+++&&&###+++&&&***************&&&###&&&***&&&+++######",
"   &&&******+++###+++&&&###+++&&&***************&&&###&&&***&&&+++######",
"+++&&&***&&&++++++&&&***###***+++&&&******&&&***&&&###&&&***&&&@@@+++###",
"+++&&&***&&&++++++&&&***###***+++&&&******&&&***&&&###&&&***&&&@@@+++###",
"+++&&&***&&&++++++&&&***###***+++&&&******&&&***&&&###&&&***&&&@@@+++###",
"+++&&&+++######+++******###***+++&&&&&&*********&&&###&&&***&&&@@@@@@+++",
"+++&&&+++######+++******###***+++&&&&&&*********&&&###&&&***&&&@@@@@@+++",
"+++&&&+++######+++******###***+++&&&&&&*********&&&###&&&***&&&@@@@@@+++",
"++++++&&&###+++@@@******###&&&***+++&&&*********&&&###+++&&&&&&...@@@+++",
"++++++&&&###+++@@@******###&&&***+++&&&*********&&&###+++&&&&&&...@@@+++",
"++++++&&&###+++@@@******###&&&***+++&&&*********&&&###+++&&&&&&...@@@+++",
"   ######++++++...***&&&+++###******###&&&***&&&+++######+++###+++######",
"   ######++++++...***&&&+++###******###&&&***&&&+++######+++###+++######",
"   ######++++++...***&&&+++###******###&&&***&&&+++######+++###+++######",
"   ###++++++++++++***&&&++++++&&&&&&***+++&&&&&&+++&&&&&&&&&++++++++++++",
"   ###++++++++++++***&&&++++++&&&&&&***+++&&&&&&+++&&&&&&&&&++++++++++++",
"   ###++++++++++++***&&&++++++&&&&&&***+++&&&&&&+++&&&&&&&&&++++++++++++",
"++++++@@@######...&&&......######+++&&&&&&...###&&&*********######++++++",
"++++++@@@######...&&&......######+++&&&&&&...###&&&*********######++++++",
"++++++@@@######...&&&......######+++&&&&&&...###&&&*********######++++++",
"      @@@&&&###@@@@@@@@@@@@######@@@###+++......&&&*********&&&+++......",
"      @@@&&&###@@@@@@@@@@@@######@@@###+++......&&&*********&&&+++......",
"      @@@&&&###@@@@@@@@@@@@######@@@###+++......&&&*********&&&+++......",
"%%%@@@         ######@@@######+++@@@###+++...++++++######&&&&&&......@@@",
"%%%@@@         ######@@@######+++@@@###+++...++++++######&&&&&&......@@@",
"%%%@@@         ######@@@######+++@@@###+++...++++++######&&&&&&......@@@",
"%%%%%%%%%      &&&###@@@@@@###@@@@@@###+++...+++++++++++++++@@@@@@@@@   ",
"%%%%%%%%%      &&&###@@@@@@###@@@@@@###+++...+++++++++++++++@@@@@@@@@   ",
"%%%%%%%%%      &&&###@@@@@@###@@@@@@###+++...+++++++++++++++@@@@@@@@@   ",
"%%%%%%%%%      &&&@@@@@@@@@+++@@@++++++............+++...@@@            ",
"%%%%%%%%%      &&&@@@@@@@@@+++@@@++++++............+++...@@@            ",
"%%%%%%%%%      &&&@@@@@@@@@+++@@@++++++............+++...@@@            ",
"               @@@@@@         +++...      ++++++++++++......@@@         ",
"               @@@@@@         +++...      ++++++++++++......@@@         ",
"               @@@@@@         +++...      ++++++++++++......@@@         "};
