/* XPM */
static char * C:\Users\user\Desktop\exit_xpm[] = {
"72 72 14 1",
" 	c None",
".	c #605868",
"+	c #280800",
"@	c #B8B8B8",
"#	c #C8C8C8",
"$	c #482008",
"%	c #D8D8D8",
"&	c #683818",
"*	c #884820",
"=	c #A06030",
"-	c #C07840",
";	c #F8F8F8",
">	c #E8E8E8",
",	c #E08848",
"      ...+++                                             ...+++         ",
"      ...+++                                             ...+++         ",
"      ...+++                                             ...+++         ",
"      @@@+++                                             ###+++         ",
"      @@@+++                                             ###+++         ",
"      @@@+++                                             ###+++         ",
"      ###+++                                             @@@+++         ",
"      ###+++                                             @@@+++         ",
"      ###+++                                             @@@+++         ",
"      @@@+++                                             ###+++         ",
"      @@@+++                                             ###+++         ",
"      @@@+++                                             ###+++         ",
"+++$$$%%%++++++$$$$$$&&&&&&&&&++++++++++++               @@@+++         ",
"+++$$$%%%++++++$$$$$$&&&&&&&&&++++++++++++               @@@+++         ",
"+++$$$%%%++++++$$$$$$&&&&&&&&&++++++++++++               @@@+++         ",
"$$$&&&+++&&&***&&&&&&***======******&&&&&&$$$$$$&&&$$$$$$%%%+++++++++   ",
"$$$&&&+++&&&***&&&&&&***======******&&&&&&$$$$$$&&&$$$$$$%%%+++++++++   ",
"$$$&&&+++&&&***&&&&&&***======******&&&&&&$$$$$$&&&$$$$$$%%%+++++++++   ",
"&&&******===***************===============***************+++$$$&&&$$$+++",
"&&&******===***************===============***************+++$$$&&&$$$+++",
"&&&******===***************===============***************+++$$$&&&$$$+++",
"+++&&&&&&***=========************************************&&&&&&***&&&+++",
"+++&&&&&&***=========************************************&&&&&&***&&&+++",
"+++&&&&&&***=========************************************&&&&&&***&&&+++",
"   ++++++###%%%%%%&&&***======---###===------=========******&&&&&&$$$+++",
"   ++++++###%%%%%%&&&***======---###===------=========******&&&&&&$$$+++",
"   ++++++###%%%%%%&&&***======---###===------=========******&&&&&&$$$+++",
"   +++&&&###$$$&&&***;;;$$$***%%%***&&&%%%&&&***&&&&&&&&&$$$$$$$$$$$$+++",
"   +++&&&###$$$&&&***;;;$$$***%%%***&&&%%%&&&***&&&&&&&&&$$$$$$$$$$$$+++",
"   +++&&&###$$$&&&***;;;$$$***%%%***&&&%%%&&&***&&&&&&&&&$$$$$$$$$$$$+++",
"+++&&&###&&&***======%%%&&&---###===--->>>***;;;>>>@@@*********&&&$$$+++",
"+++&&&###&&&***======%%%&&&---###===--->>>***;;;>>>@@@*********&&&$$$+++",
"+++&&&###&&&***======%%%&&&---###===--->>>***;;;>>>@@@*********&&&$$$+++",
"+++&&&###$$$&&&=========;;;###&&&------>>>***------%%%######@@@***++++++",
"+++&&&###$$$&&&=========;;;###&&&------>>>***------%%%######@@@***++++++",
"+++&&&###$$$&&&=========;;;###&&&------>>>***------%%%######@@@***++++++",
"+++$$$%%%>>>;;;&&&******%%%&&&*********>>>&&&******%%%###***&&&$$$+++   ",
"+++$$$%%%>>>;;;&&&******%%%&&&*********>>>&&&******%%%###***&&&$$$+++   ",
"+++$$$%%%>>>;;;&&&******%%%&&&*********>>>&&&******%%%###***&&&$$$+++   ",
"$$$&&&%%%$$$******===;;;######***&&&>>>###$$$***$$$>>>&&&$$$$$$$$$+++   ",
"$$$&&&%%%$$$******===;;;######***&&&>>>###$$$***$$$>>>&&&$$$$$$$$$+++   ",
"$$$&&&%%%$$$******===;;;######***&&&>>>###$$$***$$$>>>&&&$$$$$$$$$+++   ",
"   $$$>>>***===&&&;;;%%%***%%%******>>>@@@&&&===***;;;&&&***===++++++   ",
"   $$$>>>***===&&&;;;%%%***%%%******>>>@@@&&&===***;;;&&&***===++++++   ",
"   $$$>>>***===&&&;;;%%%***%%%******>>>@@@&&&===***;;;&&&***===++++++   ",
"&&&===;;;>>>>>>===>>>***===***%%%***>>>&&&======$$$;;;&&&===$$$++++++   ",
"&&&===;;;>>>>>>===>>>***===***%%%***>>>&&&======$$$;;;&&&===$$$++++++   ",
"&&&===;;;>>>>>>===>>>***===***%%%***>>>&&&======$$$;;;&&&===$$$++++++   ",
"***---===************=========%%%===>>>&&&======***>>>***$$$++++++$$$   ",
"***---===************=========%%%===>>>&&&======***>>>***$$$++++++$$$   ",
"***---===************=========%%%===>>>&&&======***>>>***$$$++++++$$$   ",
"===,,,------=======================================###******+++$$$&&&   ",
"===,,,------=======================================###******+++$$$&&&   ",
"===,,,------=======================================###******+++$$$&&&   ",
"***===,,,,,,,,,,,,,,,,,,,,,---------------======******======&&&$$$&&&   ",
"***===,,,,,,,,,,,,,,,,,,,,,---------------======******======&&&$$$&&&   ",
"***===,,,,,,,,,,,,,,,,,,,,,---------------======******======&&&$$$&&&   ",
"      ***&&&***&&&***===---,,,,,,,,,,,,,,,,,,---===---======$$$$$$      ",
"      ***&&&***&&&***===---,,,,,,,,,,,,,,,,,,---===---======$$$$$$      ",
"      ***&&&***&&&***===---,,,,,,,,,,,,,,,,,,---===---======$$$$$$      ",
"                     &&&$$$&&&&&&&&&&&&&&&&&&&&&$$$$$$$$$$$$$$$&&&      ",
"                     &&&$$$&&&&&&&&&&&&&&&&&&&&&$$$$$$$$$$$$$$$&&&      ",
"                     &&&$$$&&&&&&&&&&&&&&&&&&&&&$$$$$$$$$$$$$$$&&&      ",
"                                                &&&&&&$$$$$$&&&&&&      ",
"                                                &&&&&&$$$$$$&&&&&&      ",
"                                                &&&&&&$$$$$$&&&&&&      ",
"                                                                        ",
"                                                                        ",
"                                                                        ",
"                                                                        ",
"                                                                        ",
"                                                                        "};
