/* XPM */
static char * C:\Users\user\Desktop\gem_xpm[] = {
"72 72 11 1",
" 	c None",
".	c #400040",
"+	c #6800A0",
"@	c #E818F8",
"#	c #F888F8",
"$	c #F8C8F8",
"%	c #B000E0",
"&	c #300080",
"*	c #200058",
"=	c #F8E8F8",
"-	c #F858F8",
"                     ...+++@@@###$$$$$$$$$###%%%@@@                     ",
"                     ...+++@@@###$$$$$$$$$###%%%@@@                     ",
"                     ...+++@@@###$$$$$$$$$###%%%@@@                     ",
"                  ...%%%&&&+++%%%%%%%%%%%%%%%@@@###@@@                  ",
"                  ...%%%&&&+++%%%%%%%%%%%%%%%@@@###@@@                  ",
"                  ...%%%&&&+++%%%%%%%%%%%%%%%@@@###@@@                  ",
"               &&&%%%%%%+++&&&&&&......***+++%%%@@@$$$@@@               ",
"               &&&%%%%%%+++&&&&&&......***+++%%%@@@$$$@@@               ",
"               &&&%%%%%%+++&&&&&&......***+++%%%@@@$$$@@@               ",
"            +++@@@@@@+++&&&&&&...***......***++++++@@@===@@@            ",
"            +++@@@@@@+++&&&&&&...***......***++++++@@@===@@@            ",
"            +++@@@@@@+++&&&&&&...***......***++++++@@@===@@@            ",
"         %%%------+++.........******............&&&+++@@@===@@@         ",
"         %%%------+++.........******............&&&+++@@@===@@@         ",
"         %%%------+++.........******............&&&+++@@@===@@@         ",
"      +++---@@@###%%%&&&......******......&&&%%%---###---@@@===@@@      ",
"      +++---@@@###%%%&&&......******......&&&%%%---###---@@@===@@@      ",
"      +++---@@@###%%%&&&......******......&&&%%%---###---@@@===@@@      ",
"   &&&@@@%%%@@@---@@@+++&&&......&&&&&&&&&%%%###$$$$$$###@@@@@@===&&&   ",
"   &&&@@@%%%@@@---@@@+++&&&......&&&&&&&&&%%%###$$$$$$###@@@@@@===&&&   ",
"   &&&@@@%%%@@@---@@@+++&&&......&&&&&&&&&%%%###$$$$$$###@@@@@@===&&&   ",
"&&&@@@%%%%%%@@@------+++&&&&&&++++++%%%%%%---$$$$$$###@@@&&&+++%%%@@@...",
"&&&@@@%%%%%%@@@------+++&&&&&&++++++%%%%%%---$$$$$$###@@@&&&+++%%%@@@...",
"&&&@@@%%%%%%@@@------+++&&&&&&++++++%%%%%%---$$$$$$###@@@&&&+++%%%@@@...",
"+++%%%%%%%%%%%%@@@---%%%&&&+++++++++%%%%%%%%%---###---++++++++++++&&&&&&",
"+++%%%%%%%%%%%%@@@---%%%&&&+++++++++%%%%%%%%%---###---++++++++++++&&&&&&",
"+++%%%%%%%%%%%%@@@---%%%&&&+++++++++%%%%%%%%%---###---++++++++++++&&&&&&",
"&&&++++++%%%%%%%%%@@@%%%++++++++++++%%%%%%@@@@@@---@@@%%%++++++&&&&&&%%%",
"&&&++++++%%%%%%%%%@@@%%%++++++++++++%%%%%%@@@@@@---@@@%%%++++++&&&&&&%%%",
"&&&++++++%%%%%%%%%@@@%%%++++++++++++%%%%%%@@@@@@---@@@%%%++++++&&&&&&%%%",
"...&&&+++++++++%%%%%%+++++++++++++++%%%@@@@@@@@@@@@@@@%%%%%%+++%%%@@@@@@",
"...&&&+++++++++%%%%%%+++++++++++++++%%%@@@@@@@@@@@@@@@%%%%%%+++%%%@@@@@@",
"...&&&+++++++++%%%%%%+++++++++++++++%%%@@@@@@@@@@@@@@@%%%%%%+++%%%@@@@@@",
"***...&&&+++++++++++++++++++++&&&&&&@@@@@@@@@@@@@@@@@@%%%%%%%%%++++++%%%",
"***...&&&+++++++++++++++++++++&&&&&&@@@@@@@@@@@@@@@@@@%%%%%%%%%++++++%%%",
"***...&&&+++++++++++++++++++++&&&&&&@@@@@@@@@@@@@@@@@@%%%%%%%%%++++++%%%",
"&&&+++%%%%%%+++++++++&&&&&&&&&&&&%%%@@@@@@@@@@@@@@@@@@%%%%%%%%%++++++%%%",
"&&&+++%%%%%%+++++++++&&&&&&&&&&&&%%%@@@@@@@@@@@@@@@@@@%%%%%%%%%++++++%%%",
"&&&+++%%%%%%+++++++++&&&&&&&&&&&&%%%@@@@@@@@@@@@@@@@@@%%%%%%%%%++++++%%%",
"+++%%%%%%%%%%%%%%%%%%+++&&&&&&%%%---@@@@@@@@@@@@@@@@@@%%%+++++++++++++++",
"+++%%%%%%%%%%%%%%%%%%+++&&&&&&%%%---@@@@@@@@@@@@@@@@@@%%%+++++++++++++++",
"+++%%%%%%%%%%%%%%%%%%+++&&&&&&%%%---@@@@@@@@@@@@@@@@@@%%%+++++++++++++++",
"$$$$$$$$$$$$$$$###---%%%&&&%%%------%%%+++%%%###$$$###@@@%%%%%%%%%++++++",
"$$$$$$$$$$$$$$$###---%%%&&&%%%------%%%+++%%%###$$$###@@@%%%%%%%%%++++++",
"$$$$$$$$$$$$$$$###---%%%&&&%%%------%%%+++%%%###$$$###@@@%%%%%%%%%++++++",
"###$$$===$$$$$$$$$###@@@---%%%%%%++++++%%%---======$$$###%%%%%%%%%++++++",
"###$$$===$$$$$$$$$###@@@---%%%%%%++++++%%%---======$$$###%%%%%%%%%++++++",
"###$$$===$$$$$$$$$###@@@---%%%%%%++++++%%%---======$$$###%%%%%%%%%++++++",
"@@@###$$$===$$$===###@@@---###===$$$$$$$$$============$$$@@@%%%++++++&&&",
"@@@###$$$===$$$===###@@@---###===$$$$$$$$$============$$$@@@%%%++++++&&&",
"@@@###$$$===$$$===###@@@---###===$$$$$$$$$============$$$@@@%%%++++++&&&",
"&&&@@@###$$$===###@@@---###$$$$$$===###$$$$$$======$$$###%%%++++++&&&   ",
"&&&@@@###$$$===###@@@---###$$$$$$===###$$$$$$======$$$###%%%++++++&&&   ",
"&&&@@@###$$$===###@@@---###$$$$$$===###$$$$$$======$$$###%%%++++++&&&   ",
"   &&&@@@######@@@%%%@@@$$$$$$###===######$$$$$$$$$###---++++++&&&      ",
"   &&&@@@######@@@%%%@@@$$$$$$###===######$$$$$$$$$###---++++++&&&      ",
"   &&&@@@######@@@%%%@@@$$$$$$###===######$$$$$$$$$###---++++++&&&      ",
"      &&&%%%@@@@@@@@@---$$$$$$###$$$######$$$$$$###---%%%+++&&&         ",
"      &&&%%%@@@@@@@@@---$$$$$$###$$$######$$$$$$###---%%%+++&&&         ",
"      &&&%%%@@@@@@@@@---$$$$$$###$$$######$$$$$$###---%%%+++&&&         ",
"         &&&%%%@@@@@@###$$$$$$---###---###$$$###---%%%+++&&&            ",
"         &&&%%%@@@@@@###$$$$$$---###---###$$$###---%%%+++&&&            ",
"         &&&%%%@@@@@@###$$$$$$---###---###$$$###---%%%+++&&&            ",
"            &&&%%%@@@######$$$------------###---%%%+++&&&               ",
"            &&&%%%@@@######$$$------------###---%%%+++&&&               ",
"            &&&%%%@@@######$$$------------###---%%%+++&&&               ",
"               &&&%%%---###------%%%+++%%%------+++&&&                  ",
"               &&&%%%---###------%%%+++%%%------+++&&&                  ",
"               &&&%%%---###------%%%+++%%%------+++&&&                  ",
"                  &&&%%%---@@@%%%%%%++++++%%%+++&&&                     ",
"                  &&&%%%---@@@%%%%%%++++++%%%+++&&&                     ",
"                  &&&%%%---@@@%%%%%%++++++%%%+++&&&                     "};
