/* XPM */
static char *d62ca6bfb6a849fad013edb03900b5c9q67EGg669MAcKLJw[] = {
/* columns rows colors chars-per-pixel */
"22 24 5 1 ",
"  c None",
". c black",
"X c #E80000",
"o c #F85800",
"O c #F88000",
/* pixels */
"    ..............    ",
"    ..............    ",
"  ....OOOOOOOOOO....  ",
"  ....OOOOOOOOOO....  ",
"  ..OOOO......OOOO..  ",
"  ..OOOO......OOOO..  ",
"  ..OOOO......OOOO..  ",
"  ..OOOO......OOOO..  ",
"  ..OOOOOO....OOOO..  ",
"  ..OOOOOO....OOOO..  ",
"  ....oooooooooo....  ",
"  ....oooooooooo....  ",
"....oooooooooooooo....",
"....oooooooooooooo....",
"..oooo......oooooooo..",
"..oooo......oooooooo..",
"..XXXX........XXXXXX..",
"..XXXX........XXXXXX..",
"..XXXXXX......XXXX....",
"..XXXXXX......XXXX....",
"....XXXXXXXXXXXX....  ",
"....XXXXXXXXXXXX....  ",
"  ................    ",
"  ................    "
};
