/* XPM */
static char *_432cf7168a04c86ceb5edabdd7f1db3dYUpR3ZkqCa0ybpC[] = {
/* columns rows colors chars-per-pixel */
"16 24 5 1 ",
"  c None",
". c black",
"X c #E80000",
"o c #F85800",
"O c #F88000",
/* pixels */
"    ........    ",
"    ........    ",
"  ....OOOO..    ",
"  ....OOOO..    ",
"....OOOOOO..    ",
"....OOOOOO..    ",
"..OOOOOOOO..    ",
"..OOOOOOOO..    ",
"......OOOO..    ",
"......OOOO..    ",
"    ..oooo..    ",
"    ..oooo..    ",
"    ..oooo..    ",
"    ..oooo..    ",
"    ..oooo..    ",
"    ..oooo..    ",
"    ..XXXX..    ",
"    ..XXXX..    ",
"......XXXX......",
"......XXXX......",
"..XXXXXXXXXXXX..",
"..XXXXXXXXXXXX..",
"................",
"................"
};
