/* XPM */
static char * C:\Users\user\Desktop\player_left_xpm[] = {
"81 81 13 1",
" 	c None",
".	c #484010",
"+	c #B0A060",
"@	c #F8D880",
"#	c #787030",
"$	c #F8F8F8",
"%	c #000000",
"&	c #C08858",
"*	c #F8F038",
"=	c #805848",
"-	c #0058C0",
";	c #0088F8",
">	c #00C0F8",
"                                 ...............                                 ",
"                                 ...............                                 ",
"                                 ...............                                 ",
"                  ...............+++@@@@@@@@@@@@......                           ",
"                  ...............+++@@@@@@@@@@@@......                           ",
"                  ...............+++@@@@@@@@@@@@......                           ",
"            ...###+++++++++###+++@@@@@@@@@+++@@@$$$$$$...                        ",
"            ...###+++++++++###+++@@@@@@@@@+++@@@$$$$$$...                        ",
"            ...###+++++++++###+++@@@@@@@@@+++@@@$$$$$$...                        ",
"            %%%......@@@++++++@@@@@@@@@+++++++++@@@+++###...                     ",
"            %%%......@@@++++++@@@@@@@@@+++++++++@@@+++###...                     ",
"            %%%......@@@++++++@@@@@@@@@+++++++++@@@+++###...                     ",
"               %%%&&&...@@@@@@++++++++++++++++++#########...                     ",
"               %%%&&&...@@@@@@++++++++++++++++++#########...                     ",
"               %%%&&&...@@@@@@++++++++++++++++++#########...                     ",
"            %%%&&&******###...@@@###+++++++++############......                  ",
"            %%%&&&******###...@@@###+++++++++############......                  ",
"            %%%&&&******###...@@@###+++++++++############......                  ",
"   %%%======%%%&&&******&&&===...@@@######+++#########.........   &&&======%%%   ",
"   %%%======%%%&&&******&&&===...@@@######+++#########.........   &&&======%%%   ",
"   %%%======%%%&&&******&&&===...@@@######+++#########.........   &&&======%%%   ",
"%%%===&&&@@@%%%&&&***&&&%%%---$$$...++++++###..................   &&&@@@&&&===%%%",
"%%%===&&&@@@%%%&&&***&&&%%%---$$$...++++++###..................   &&&@@@&&&===%%%",
"%%%===&&&@@@%%%&&&***&&&%%%---$$$...++++++###..................   &&&@@@&&&===%%%",
"%%%===&&&&&&===%%%&&&%%%===%%%---$$$%%%...+++###...............   ===&&&&&&===%%%",
"%%%===&&&&&&===%%%&&&%%%===%%%---$$$%%%...+++###...............   ===&&&&&&===%%%",
"%%%===&&&&&&===%%%&&&%%%===%%%---$$$%%%...+++###...............   ===&&&&&&===%%%",
"%%%===%%%@@@@@@---%%%%%%===$$$$$$@@@&&&===%%%...###...#########...@@@@@@%%%===%%%",
"%%%===%%%@@@@@@---%%%%%%===$$$$$$@@@&&&===%%%...###...#########...@@@@@@%%%===%%%",
"%%%===%%%@@@@@@---%%%%%%===$$$$$$@@@&&&===%%%...###...#########...@@@@@@%%%===%%%",
"   %%%===&&&---;;;---;;;%%%@@@@@@@@@@@@&&&======...#########.........&&&===%%%   ",
"   %%%===&&&---;;;---;;;%%%@@@@@@@@@@@@&&&======...#########.........&&&===%%%   ",
"   %%%===&&&---;;;---;;;%%%@@@@@@@@@@@@&&&======...#########.........&&&===%%%   ",
"      %%%--->>>---;;;;;;%%%%%%===&&&@@@@@@@@@&&&===......###++++++...---%%%      ",
"      %%%--->>>---;;;;;;%%%%%%===&&&@@@@@@@@@&&&===......###++++++...---%%%      ",
"      %%%--->>>---;;;;;;%%%%%%===&&&@@@@@@@@@&&&===......###++++++...---%%%      ",
"      %%%;;;---;;;>>>;;;---%%%@@@@@@@@@@@@&&&===;;;;;;;;;.........---;;;%%%      ",
"      %%%;;;---;;;>>>;;;---%%%@@@@@@@@@@@@&&&===;;;;;;;;;.........---;;;%%%      ",
"      %%%;;;---;;;>>>;;;---%%%@@@@@@@@@@@@&&&===;;;;;;;;;.........---;;;%%%      ",
"         %%%%%%---;;;---%%%%%%%%%=========;;;;;;;;;;;;%%%;;;;;;---%%%%%%         ",
"         %%%%%%---;;;---%%%%%%%%%=========;;;;;;;;;;;;%%%;;;;;;---%%%%%%         ",
"         %%%%%%---;;;---%%%%%%%%%=========;;;;;;;;;;;;%%%;;;;;;---%%%%%%         ",
"               %%%%%%%%%%%%;;;---;;;;;;;;;;;;;;;;;;;;;%%%%%%%%%%%%               ",
"               %%%%%%%%%%%%;;;---;;;;;;;;;;;;;;;;;;;;;%%%%%%%%%%%%               ",
"               %%%%%%%%%%%%;;;---;;;;;;;;;;;;;;;;;;;;;%%%%%%%%%%%%               ",
"                        %%%---;;;------;;;;;;;;;;;;---%%%                        ",
"                        %%%---;;;------;;;;;;;;;;;;---%%%                        ",
"                        %%%---;;;------;;;;;;;;;;;;---%%%                        ",
"                  %%%%%%%%%%%%---------------------%%%%%%%%%%%%                  ",
"                  %%%%%%%%%%%%---------------------%%%%%%%%%%%%                  ",
"                  %%%%%%%%%%%%---------------------%%%%%%%%%%%%                  ",
"               %%%######++++++@@@%%%%%%%%%%%%%%%@@@++++++######%%%               ",
"               %%%######++++++@@@%%%%%%%%%%%%%%%@@@++++++######%%%               ",
"               %%%######++++++@@@%%%%%%%%%%%%%%%@@@++++++######%%%               ",
"            %%%###+++++++++@@@@@@@@@@@@+++@@@@@@@@@@@@+++++++++###%%%            ",
"            %%%###+++++++++@@@@@@@@@@@@+++@@@@@@@@@@@@+++++++++###%%%            ",
"            %%%###+++++++++@@@@@@@@@@@@+++@@@@@@@@@@@@+++++++++###%%%            ",
"            %%%######%%%###+++@@@@@@+++###+++@@@@@@+++###%%%######%%%            ",
"            %%%######%%%###+++@@@@@@+++###+++@@@@@@+++###%%%######%%%            ",
"            %%%######%%%###+++@@@@@@+++###+++@@@@@@+++###%%%######%%%            ",
"         ...%%%#########%%%%%%######%%%%%%%%%######%%%%%%#########%%%...         ",
"         ...%%%#########%%%%%%######%%%%%%%%%######%%%%%%#########%%%...         ",
"         ...%%%#########%%%%%%######%%%%%%%%%######%%%%%%#########%%%...         ",
"         ......%%%#########%%%                     %%%#########%%%......         ",
"         ......%%%#########%%%                     %%%#########%%%......         ",
"         ......%%%#########%%%                     %%%#########%%%......         ",
"         ......===%%%%%%%%%                           %%%%%%%%%===......         ",
"         ......===%%%%%%%%%                           %%%%%%%%%===......         ",
"         ......===%%%%%%%%%                           %%%%%%%%%===......         ",
"            %%%======...%%%                           %%%...======%%%            ",
"            %%%======...%%%                           %%%...======%%%            ",
"            %%%======...%%%                           %%%...======%%%            ",
"               %%%%%%%%%                                 %%%%%%%%%               ",
"               %%%%%%%%%                                 %%%%%%%%%               ",
"               %%%%%%%%%                                 %%%%%%%%%               ",
"                                                                                 ",
"                                                                                 ",
"                                                                                 ",
"                                                                                 ",
"                                                                                 ",
"                                                                                 "};
