/* XPM */
static char *_2f38f5e28c5452da4b2a093e6b7905a8S208GkPQrlaFemf[] = {
/* columns rows colors chars-per-pixel */
"64 64 256 2 ",
"   c #033D09",
".  c #012B19",
"X  c #013A15",
"o  c #02361D",
"O  c #033C1B",
"+  c #093E1D",
"@  c #063515",
"#  c #113717",
"$  c #072D28",
"%  c #122A2B",
"&  c #023423",
"*  c #023C24",
"=  c #0A3C25",
"-  c #03352B",
";  c #033C2B",
":  c #0C3B2C",
">  c #0B3529",
",  c #123C2C",
"<  c #143629",
"1  c #0C3533",
"2  c #043C33",
"3  c #0C3C33",
"4  c #0A353A",
"5  c #033C3B",
"6  c #0D3C3B",
"7  c #033535",
"8  c #133D34",
"9  c #123C3B",
"0  c #153737",
"q  c #0F2B35",
"w  c #034907",
"e  c #075908",
"r  c #135C0B",
"t  c #014313",
"y  c #0B4415",
"u  c #034C13",
"i  c #03431B",
"p  c #0B441C",
"a  c #044B1B",
"s  c #0B4C1C",
"d  c #0C4D14",
"f  c #124C1B",
"g  c #114719",
"h  c #0B531C",
"j  c #085718",
"k  c #12551B",
"l  c #145B1C",
"z  c #1C5B1D",
"x  c #165716",
"c  c #1C641C",
"v  c #166818",
"b  c #1A771A",
"n  c #126A0E",
"m  c #236D1C",
"M  c #22661E",
"N  c #257A1B",
"B  c #297D14",
"V  c #034324",
"C  c #0B4324",
"Z  c #044A23",
"A  c #0B4B24",
"S  c #04432C",
"D  c #0B442B",
"F  c #064A2A",
"G  c #0B4B2B",
"H  c #124C24",
"J  c #12432D",
"K  c #124C2C",
"L  c #174926",
"P  c #0D5323",
"I  c #0D522B",
"U  c #0A5926",
"Y  c #125423",
"T  c #145C24",
"R  c #1B5C24",
"E  c #13532B",
"W  c #1A542C",
"Q  c #145B2C",
"!  c #1A5C2C",
"~  c #195624",
"^  c #054432",
"/  c #0C4333",
"(  c #0C4B33",
")  c #04433B",
"_  c #0C443A",
"`  c #0D4A3A",
"'  c #034A39",
"]  c #134333",
"[  c #134C33",
"{  c #13443C",
"}  c #1B433B",
"|  c #124C3B",
" . c #1A4836",
".. c #0C5335",
"X. c #0A5739",
"o. c #145333",
"O. c #1A5535",
"+. c #155A33",
"@. c #1B5B32",
"#. c #14533C",
"$. c #1B533B",
"%. c #145C3B",
"&. c #1C5B3B",
"*. c #225E2D",
"=. c #215B37",
"-. c #224A36",
";. c #0C6626",
":. c #146123",
">. c #1C6424",
",. c #1C6B23",
"<. c #14632A",
"1. c #1B632B",
"2. c #1C6A2A",
"3. c #146A29",
"4. c #1C7324",
"5. c #1C6333",
"6. c #1E6B33",
"7. c #1C643A",
"8. c #18673A",
"9. c #126A3C",
"0. c #226423",
"q. c #246C24",
"w. c #22642C",
"e. c #236C2C",
"r. c #2A6928",
"t. c #237325",
"y. c #2C7523",
"u. c #257B24",
"i. c #2B7C24",
"p. c #24732A",
"a. c #2C742C",
"s. c #2C7A2B",
"d. c #257B2B",
"f. c #337C2A",
"g. c #327927",
"h. c #236333",
"j. c #246B33",
"k. c #246B3B",
"l. c #286838",
"z. c #247333",
"x. c #2B7334",
"c. c #2D7B33",
"v. c #2C733B",
"b. c #287739",
"n. c #337C34",
"m. c #347A39",
"M. c #316C33",
"N. c #20561C",
"B. c #417E38",
"V. c #0C3C43",
"C. c #073A47",
"Z. c #123C42",
"A. c #173747",
"S. c #0E304C",
"D. c #203241",
"F. c #0B4845",
"G. c #134343",
"H. c #194A44",
"J. c #174947",
"K. c #195646",
"L. c #1A4A56",
"P. c #195955",
"I. c #0B5351",
"U. c #224846",
"Y. c #255946",
"T. c #215D57",
"R. c #214C55",
"E. c #186846",
"W. c #17764A",
"Q. c #18665A",
"!. c #197456",
"~. c #0A6544",
"^. c #276845",
"/. c #2A7744",
"(. c #347A45",
"). c #276959",
"_. c #337654",
"`. c #265F62",
"'. c #1B6863",
"]. c #2A7A62",
"[. c #29861A",
"{. c #33881D",
"}. c #33941C",
"|. c #2F961E",
" X c #3DAA1F",
".X c #298528",
"XX c #338C2B",
"oX c #368927",
"OX c #349322",
"+X c #3A932C",
"@X c #399727",
"#X c #2D8333",
"$X c #2C843A",
"%X c #348433",
"&X c #3A8533",
"*X c #348B33",
"=X c #3C8C34",
"-X c #348B3A",
";X c #3C8B3A",
":X c #38843B",
">X c #3C9234",
",X c #3A9737",
"<X c #2F962B",
"1X c #3CA52A",
"2X c #3CA437",
"3X c #3FB03A",
"4X c #1E8115",
"5X c #47B11C",
"6X c #45962D",
"7X c #438C37",
"8X c #449B3A",
"9X c #459837",
"0X c #549F39",
"qX c #45A72B",
"wX c #49B727",
"eX c #43AB34",
"rX c #4AA53C",
"tX c #4BAC3B",
"yX c #47A837",
"uX c #53A73A",
"iX c #49B437",
"pX c #53B838",
"aX c #52AB29",
"sX c #489A1C",
"dX c #56D729",
"fX c #55C838",
"gX c #5BD735",
"hX c #51D029",
"jX c #64D039",
"kX c #61E02E",
"lX c #18895B",
"zX c #3A8844",
"xX c #3C9744",
"cX c #2F854B",
"vX c #1C8461",
"bX c #2A8466",
"nX c #438946",
"mX c #459442",
"MX c #499948",
"NX c #549D49",
"BX c #4A9955",
"VX c #509655",
"CX c #4AA345",
"ZX c #55AA47",
"AX c #56B945",
"SX c #50AA53",
"DX c #63AD58",
"FX c #5DA263",
"GX c #59C747",
"HX c #5ACF4E",
"JX c #63CA49",
"KX c #65D54A",
"LX c #69D655",
"PX c #68CD55",
"IX c #65E34F",
"UX c #69D063",
/* pixels */
"L.L.J.G.2 - ; C o.@.E A A E E s a a P I Q T k h d d d p = 3 G.G.{ { { { G.V.Z.V.4 4 4 6 6 { H.| ..X.8.8.b.b.2.:.Y h a i O * S ^ ",
"L.J.J._ 3 ; C C W ! W P P Q ! Y T U U P U T T R k k f p = : 6 G.] ] / / 6 6 6 6 3 3 3 3 _ { | $.I I 8.7.k.6.Q P P Z i i * = S / ",
"_ _ ` ( D C A s Y R R l T 1.w.1.2.3.3.1.1.1.j.j.1.>.R A C = ; 3 : = = = = : 3 / / / / / [ [ $.O.o.+.5.7.h.5.E A C C C D D 3 3 3 ",
"S S ( G G A P Y l R R c >.e.x.x.t.p.b.b.b.b.v.v.x.j.h.E A C D D + + @ O O O C C [ [ K E O.@.=.h.5.5.5.@.@.E G D = : 3 ] { ] 8 8 ",
"i Z A P Y Y l l ,.,.q.q.t.a.n.:X*X*X#Xd.4.3.j.j.v.v.k.5.E A A H g g y y p p H H ! ! ! ! ! w.j.j.j.w.R H C C : 3 > 1 9 H.H.} 8 8 ",
"a a P Y l l >.,.t.t.a.s.s.a.n.;XZX8X.Xv e e l 1.k.^.^.k.@.R Y ~ z z z R R R R R ! 1.1.1.1.e.e.a.a.r.R s O o - 3 1 9 G.U.U.U.} 8 ",
"h h l l l :.>.q.a.p.a.a.a.q.a.&XZXrXXXn e w u h 5.7.^.k.h.1.>.0.0.r.r.r.M.h.w.w.1.1.1.1.>.2.e.t.g.g.q.x p O ; 3 6 Z.H.U.U.U. .] ",
"l Y T l l :.2.e.e.e.e.j.e.R w.a.rXyX+XN n e w u E %.^.^.k.w.0.0.r.r.M.M.M.l.h.1.! R 1.<.1.3.2.t.oXoXi.q.T A D / 6 G.J.U.U.$. .L ",
"<.:.:.2.6.1.! 6.R 1.R Y a y s k N OX6X6X>X%X,.h a V G o.@.R c 0.w.*.*.*.*.*.=.7.k.@.I P I 6.v.-X+X@X8XmXzXQ V o ; ^ ` | $.$.O.=.",
"U Y <.6.7.@.Q Q I E E A X X p s n [.6XZXZX8Xn.>.Z V S ( o.~ x z ~ W W E o.o.O.o.&.o.G Z A Q k.m.XX+XrXSXmXz.P i S ^ ( ` ( o.o.O.",
"h h Q k.h.+.G G F D D = * o = p l u.9XZXDXZXmXm.A V * S K H k f H G D V F D ( [ #.[ V * C G &.j.i.OX8XSXMXz.P i Z F ( ( ( G G E ",
"u h Q k.k.o.F V D / / : : > ] K j.c.=X8XZXZXNXnXE ; & - / K g y A S C * ; ; / / / / ; ; : D [ E b N *XMXxXj.a t F F ( ( S S D G ",
"d h R k.h.E C * / / 8 8 8 ] }  .k.z.s.&X9XuXNXVXW D - 7 8 ] C p F S S ; 2 ^ / _ - - 3 3 8 : : O :.,.m.zXzX6.P a G G ( ( / 3 3 / ",
"k k >.j.h.E C * : 3 8 8 8 8 }  .K Q 0.g.6X0XNXnXW / 7 4 9 8 , C ( ( ( ( ` ` { { $ - 3 8 8 , & . P T j./.v.Q a i C D [ { { 6 6 6 ",
"l l >.w.h.H C = = > > , 8 8 8 ] * V k m oX6X7XB.L ] 4 Z.Z.9 , J [ #.#.K.K.H.H.H.3 8 8 } 8 8 < > C A &.^.l.E O X = D { H.J.A.A.A.",
">.R >.w.*.Y C C = = > : 8 8 8 ] ; C s x y.7X7Xm.H D 6 9 9 3 : J #.#.K.K.K.$.$.O.[ K L L L L L g i h 5./.^.W C O * : } H.J.A.A.A.",
"G E @.h.j.w.Y i X * - : 2 2 3 2 ; / [ K ! ^._._.=.[ = * * C H K #.#.| o.o.@.h.j.>.q.q.M v r r r n v b 4.>.Q E G / / _ { 9 9 9 9 ",
"( ( +.5.w.w.z k Z G ( ` ( ^ ; * - ; ; - D K.^.^.O.K O X X i p C o.( G I R >.p.i.i..XoX{.[.[.B B B [.[.i.p.2.Q I S / ^ / 3 3 , , ",
"V G E 1.0.q.q.e.v.v.^.^.%.G i X * - - & & D | $.o.G V O V A E Q Q Q T :.,.d.XX+X+X@XqXyXiXtXeX1X@X@X+X>X*Xb.2.R A A C = : D J J ",
"* A E R ,.q.a.%XVXBXnX(.6.l u t V * * o o * V V G A Z Z I 5.k.b.4.4.b b .XXX2XyX1XqXiXGXLXLXJXGXtXrX9X8XmX;Xa.>.k s p O + C K K ",
"C F Y T c m %X=XDXSXmX%Xd.4.v c k Y Y P P h a h T :.:.:.3.z.$X-X.X.X[.[.|.1XiXiXqXiXfXKXLXLXKXGXZXrX8X8X8X9Xf.q.c x f y p C C K ",
"D D A Y c m f.=XmX;X*X.X.XXX+X9X%Xn.n.:X:Xs.d.d.*X*X*X*X*X*X,X,X2X1X1X1XeXeXiXpXiXpXGXHXHXGXiX2X8X7X=X7X7X=XoXy.q.M z k s C C D ",
"_ / A s l m y.i.i.i.u.u..X,XrXZXuX0XuXZXuX9X6XyXtXtXtXyXqXqXqXeXtXiXtXtXeXtXtXtXeXtXAXAX2X<X4Xb d.a.a.i.g.g.g.g.f.a.0.R Y A D F ",
"F./ V a l c q.m v v b u.XX,XtXAXuXuXuXuXuXqXqXuXiXiXiXqXqX1XqXqXtXrXrXyX,X,X,X>X*X,XxXxX#X4.n j R ! >.0.M q.y.f.n.n.j.1.E G F D ",
"F._ ^ A h l l v v v ,.d.%X*XXX+X6X6X+XoXoXoXOXOXOXOXOXOXOX|.|.OXXX%X%X;X%Xp.,.3.3.3.3.T P a a a K K Y Y k x z 0.c.c.M.h.E V * * ",
"V.) ^ G P l l l l j T 2.z.p.t.u.f.s.s.y.u.u.u.i.u.u.u.i.u.u.u.u.e.e.x.m.v.1.Y A G G G F C O * * D D D C p f Y R v.v.l.@.E S S S ",
"5 5 ^ G Q R R R h h P Q 1.T T T ! Q Q E E Q Q +.Q Q Q Q Q Q Q Q ! E O.&.O.G D D / / 3 : - & - : 3 3 : > = C H E l.l.h.&.K G D F ",
"2 ^ ( &.k.v.j.w.P A A K o.K A A S S ^ S ^ ^ ^ ( S S S S S D / D $.K F D D 3 _ H.H.G.{ 6 1 1 6 { 6 3 3 : > = D K &.&.&.+.E G G I ",
"* S +./.nXnXm.M.p p = J ] D D D ; 2 ) ) _ ) 5 2 2 2 7 7 7 1 1 3 [ D D / { _ { H.H.J.G.{ 3 3 ] } 8 8 8 : > > D / [ o.o.o.I I Q U ",
"X Z j.nXVXVXnXM.p O & : 8 : > : ^ ` F.H.H.{ 3 2 6 6 1 1 1 1 0 3 * V | Y.T.K.` 3 { { { / : : J J ] ] 8 : > - : 3 / ( o.Q Q U l l ",
"t h x.VXFXNXm.0.y + & > 1 1 > : [ o.K.^.Y.$.D =  .J , < < < < , O F K._._.K./ - ; S D D C C L L -.-. .8 : : 3 3 - F o.Q :.v r r ",
"X h x.VXDXNXg.x g + = : 3 1 > : o.%.E.^.^.&.D *  . .8 , < < < , ^ X.^._._.^.G * ; S ^ ( ( E Q @.=.&.$.[ ] 6 8 { & : E @.<.:.j e ",
"@ i v.FXDX&Xr w w s G G ; * ; S X.X.W.W.E.X.^ 2 5 C.A.L.A.4 0 J.I.Q.]._.k.1.Y Z S ) F.I.K.E.W.W.W.W.W.E.K.H.G.9 1 , J K Q U j e ",
"* G ^.VXVXr.w   d Y o.( ^ ; S ^ ~.~.E.W.E.%.X.' F.C.C.A.V.4 9 H.Q.].bXcXz.>.k a S ) F.I.I.Q.!.W.lXlXvX!.E.K.{ 8 1 , J K Q U U j ",
"S D &./.v.z w   p J { G.6 6 6 _ | #.#.%.7.&.&.#.` ) 5 2 ; C E h.zXxXMX*Xu.c f p V ) F.I.I.Q.'.!.vXvXbXbX).K.[ : , , K K I U ;.;.",
"; ; F o.W H p = & 1 9 A.A.A.A.A.9 3 8 [ =.^.^.^.#.( S * i P j.%XCXtX9XoXm z f p D / F.F.I.P.'.'.Q.!.].].).K.D = C H H H I Q <.3.",
"2 2 ; V D C J } 1 0 A.A.A.A.D.D.0 q % , -.Y.Y.^.$.[ V i u 2.-X8XaXaX6Xi.M x g = J : / ` F.P.P.'.P.P.).].).o.V i H Y Y Y Y Q Q 5.",
"G.) 3 ; = > 3 9 0 A.A.0 q % % % q q % % < , ] [ $.o.I a j d.xXrXqXsX{.M f H , > , , = C / #.K.T.P.P.T.).K.G t u T R >.T Y P E @.",
"G.Z.9 : > > : : 6 9 0 8 < # # # 0 9 0 , = = = D K.%.X.U <.$XxXCXOX{.M p - 1 Z.0 8 = + y p H O.Y.L.J.J.K.o.i u j >.,.e.>.Y A K K ",
"9 9 8 , : C C = [ K K E ~ x r x W $.=.O.E E E +.%.8.+.U 3.$XxX,XN m Y & $ S.S.S.8 = #   y f O.Y.G.4 6 [ G t u v b t.p.e.Y A D K ",
"A.0 < = + i a u h 3.b.#XXXOX}.{.#X$X#X#X*X-X-X$X2.3.3.;.,.4.b b r e Z 2 C.S.S.S.Z.] C g g g K  .9 4 - * s l ,.t..Xs.p.1.Y C = = ",
"0 < < + y d l v 4..X2XiXiXwXwXwXiXiXeX1X1XiXiX2X.X.Xd.4.u..X[.[.n r a S 5 C.C.C.V.3 C + + = ; : 3 - o X s >.p..X%Xs.e.T A C : 3 ",
"% < < g x n N .X2X3XGXHXKXgXgXgXhXdXhXhXhXdXgXfXiXeXeXyXyXqXqXqX}.[.b h Z ^ ) 5 2 2 ; ; ; 2 7 2 = O t s >.s.;XmX;X#X2.Y A D { { ",
"< , L z m N @XeXGXHXLXIXIXKXKXIXdXdXdXdXdXkXkXgXKXJXJXJXJXJXjXjXJXpX@XN v j Z Z V V S S ^ ^ ^ ^ Z h l ,.c.;XmXMXzXn.1.A V / H.K.",
"o C R a.oXqXpXGXLXLXHXHXGXAXAXGXfXgXgXgXdXgXfXfXfXAXAXPXPXPXKXLXLXJXpX1X[.b b v ;.3.8.7.7.8.5.<.v v t.%X;X8X7X;Xm.j.Y Z S _ J.P.",
"X s >.%XrXAXJXKXGXiX,X<X.Xu.s.*XyXpXfXfXwXwX1X|.[..XXXCXAXAXAXJXJXHXfXfXwX X1X1XCXSXSXSXBXxX=XXX.X<X,XCXCXmX&Xn.>.Y i O ; ) F.I.",
"i h p.,XAXJXJXGX|.4Xn l s X p W m.xXCXCXMX>Xd.b e u ;.b.-X-X<X2X3XAXfXgXdXdXhXfXKXLXUXUXJXpXwX5X1XeXtXrXrX=Xf.r.d y X * ^ F.F.F.",
"j ;..XyXGXJXGXiXN v j Z * . . C h.(.BXBXBX;X.Xv w w u 3.b.6.6.b..X<XtXfXgXgXfXfXJXPXPXPXJXpX5X5XiXtXyX,X=Xs.c k y O * 2 F.I.I.F.",
"v b OXeXpXqXOXN >.o.` _ 6 > @ X 7.8.cXxXCXyX@X|.b e w t C 8 Z.} f v g.9XuXuX9X6X9X9X9X>X>X>X>X>X;X:Xn.a.e.R s O [ ] / _ J.L.L.L.",
"b b |.qXaXqX[.c E ` V.C.Z.3 = C o.9./.zX,X2X1X X}.B r y o q A.A.@ w z r.m.m.g.a.a.a.q.q.e.x.m.m.x.j.! R ~ H C C ] ] { J.R.R.R.L.",
";.4..X1XqX@XN v I ^ C.C.G.G. .[ %.E./.cX-X,X1XeXrX8Xa.y . $ A.A.. @ p L W *.R R l k d d h Y <.1.R Y s i i C G ] ; / { K.Y.K.H./ ",
"j ;..X,XyX@XN c P ^ 5 C.G.J.H.K.^.^././.c..XXX,XDXSXzXH . 1 A.A.6 3 3 D J K H A A s a a a a a a a i i O V D | #.- 3 | $.$.[ D = ",
"Z U z.,XrX9Xi.c a * 7 C.V.G.J.K.Y.^.^.7.1.3.p.#XBXBX(.K o 8 U.A.Z.V.6 2 - ; * * * Z Z Z Z Z i i i i Z F G ` ` H._ ` | [ K A p y ",
"' X.6.-X,X=Xi.c t X & 7 5 6 G.H.[ o.o.I P P <.5.v./.7.F = 8 } Z.Z.C.V.4 7 - - & . X Z I I I I Z h P Q o...` _ _ K.K.K.o.G s d d ",
"~.%.8.z.#X%Xi.t.h a * - - 2 2 / D D C V F F G I I G G F D D : 3 6 C.V.V.) / S V X i P Q 7.k.k.j.2.z.b.7.%...) ) T.T.K.#.G s s s ",
"K.%.+.2.p.s.f.s.a.1.P A V * * * D C V V G F S S V * * G [ D O & 7 5 5 ) ` ( G A a h 1.j.m.(.zXzX-X-X:Xb.7...' ' Q.Q.P.K.( V i a ",
"K...P j e v i.=XMXVX(.Y t i Z i p p p G o.o...( S F F G C i X X ; ; * V A E ! 1.>.e.n.:X;XmXBXSXZXCX>X#Xz.8.X.` F.F.I.P.K.` V * ",
"#.o.A a d v y.%XNXNXnXp.l T T h Y k Y E o.&.o...o.o.E I A s s s I I A P R 1.e.a.n.%X;X7XmXMXNXZXrXyX>X%Xb.k.E.K.' ' I.P.T.K.) 2 ",
"o...G a h l q.s.mXNXMX;X%X%Xc.p.q.>.>.T R ! +.+.7.5.5.1.1.1.e.w.j.j.j.j.x.c.%X&X&X&X&X=X7X=X&XoX{.oX=X>XzX(.k.&.S ^ F.P.).P.J.F.",
"G G G G P Y T >.a.:XmXmXmXMXMX8Xs.p.t.,.>.>.2.2.j.j.e.e.x.n.:XnXzXzXzX:X:X;X7XmXf.i.y.y.y.m v r e n oXmXBXzX6.P Z S ` K.T.P.P.P.",
"V G [ o.o.( I P T e.%X>X8XCXCXMXXXXX.X.Xu.t.t.t.n.c.c.n.%X;XmXMXzXzXzXzXzXzXnXnXn.a.q.q.,.l d w w e d.mXBXzXe.k a Z V ` K.P.T.`.",
"* D ( { ` ^ ^ F P T ,.u..XXX+X+X,X,X2X,X+XXX.X.X=X=X=X=X=X&X&X&Xm.m.m.m.c.m.m.m.x.z.e.1.T P i t u j e.m.zX:Xc.e.h a i S ` H.P.`.",
"C D / ) V.5 ) ^ ..P j n n b B [.1XeXtXiXyX@XOXoX6X6X6X7X=XoXi.u.e.6.6.6.j.j.j.j.j.7.5.E G V * V E Q 1.j.m.m.m.n.x u t i F / H.P.",
"D D 2 7 7 C.F.F.( Z u e e e n [.@X1XiXpXtXqXOX}.@X+X6X6X+XoXN b >.1.1.5.1.1.5.5.7.7.&...S ; ^ ^ ..E 5.j.x.n.c.a.x w t i C D ` H."
};
