/* XPM */
static char * C:\Users\user\Desktop\vines_xpm[] = {
"72 72 11 1",
" 	c #105040",
".	c #104030",
"+	c #105828",
"@	c #287828",
"#	c #206828",
"$	c #40A830",
"%	c #389030",
"&	c #58D038",
"*	c #186850",
"=	c #208060",
"-	c #206838",
"   ......+++++++++++++++++++++.....................++++++@@@+++.........",
"   ......+++++++++++++++++++++.....................++++++@@@+++.........",
"   ......+++++++++++++++++++++.....................++++++@@@+++.........",
"...      ######@@@@@@@@@@@@@@@+++............++++++######+++............",
"...      ######@@@@@@@@@@@@@@@+++............++++++######+++............",
"...      ######@@@@@@@@@@@@@@@+++............++++++######+++............",
"      ######@@@@@@$$$+++...###########################@@@.........      ",
"      ######@@@@@@$$$+++...###########################@@@.........      ",
"      ######@@@@@@$$$+++...###########################@@@.........      ",
"   ###++++++......@@@$$$@@@...++++++++++++++++++...@@@%%%$$$......      ",
"   ###++++++......@@@$$$@@@...++++++++++++++++++...@@@%%%$$$......      ",
"   ###++++++......@@@$$$@@@...++++++++++++++++++...@@@%%%$$$......      ",
"   ###............@@@%%%$$$...........................@@@%%%...   ......",
"   ###............@@@%%%$$$...........................@@@%%%...   ......",
"   ###............@@@%%%$$$...........................@@@%%%...   ......",
"   ###...............@@@%%%.........         ...   ......@@@......   ...",
"   ###...............@@@%%%.........         ...   ......@@@......   ...",
"   ###...............@@@%%%.........         ...   ......@@@......   ...",
"   ###+++...............@@@.........++++++@@@@@@@@@@@@@@@@@@+++.........",
"   ###+++...............@@@.........++++++@@@@@@@@@@@@@@@@@@+++.........",
"   ###+++...............@@@.........++++++@@@@@@@@@@@@@@@@@@+++.........",
"...###@@@$$$@@@+++.........++++++@@@@@@@@@$$$$$$&&&&&&$$$$$$@@@+++......",
"...###@@@$$$@@@+++.........++++++@@@@@@@@@$$$$$$&&&&&&$$$$$$@@@+++......",
"...###@@@$$$@@@+++.........++++++@@@@@@@@@$$$$$$&&&&&&$$$$$$@@@+++......",
"...+++@@@@@@@@@$$$$$$$$$$$$$$$$$$$$$$$$$$$$$$$$$$$$@@@@@@@@@@@@@@@+++...",
"...+++@@@@@@@@@$$$$$$$$$$$$$$$$$$$$$$$$$$$$$$$$$$$$@@@@@@@@@@@@@@@+++...",
"...+++@@@@@@@@@$$$$$$$$$$$$$$$$$$$$$$$$$$$$$$$$$$$$@@@@@@@@@@@@@@@+++...",
"......++++++@@@@@@@@@@@@@@@@@@@@@@@@@@@@@@      ............+++@@@+++...",
"......++++++@@@@@@@@@@@@@@@@@@@@@@@@@@@@@@      ............+++@@@+++...",
"......++++++@@@@@@@@@@@@@@@@@@@@@@@@@@@@@@      ............+++@@@+++...",
"...@@@@@@.................................      ...............+++++++++",
"...@@@@@@.................................      ...............+++++++++",
"...@@@@@@.................................      ...............+++++++++",
"...$$$@@@.........   ***...............===.........      .........++++++",
"...$$$@@@.........   ***...............===.........      .........++++++",
"...$$$@@@.........   ***...............===.........      .........++++++",
"...$$$............   ***   .........===@@@......   ***===***......++++++",
"...$$$............   ***   .........===@@@......   ***===***......++++++",
"...$$$............   ***   .........===@@@......   ***===***......++++++",
".....................   ***   ...@@@$$$@@@......   ******===...+++++++++",
".....................   ***   ...@@@$$$@@@......   ******===...+++++++++",
".....................   ***   ...@@@$$$@@@......   ******===...+++++++++",
"...........................***   $$$@@@............         ...###++++++",
"...........................***   $$$@@@............         ...###++++++",
"...........................***   $$$@@@............         ...###++++++",
"......+++@@@$$$$$$$$$$$$$$$@@@@@@@@@+++.....................@@@@@@+++...",
"......+++@@@$$$$$$$$$$$$$$$@@@@@@@@@+++.....................@@@@@@+++...",
"......+++@@@$$$$$$$$$$$$$$$@@@@@@@@@+++.....................@@@@@@+++...",
"...@@@$$$&&&&&&&&&&&&&&&&&&&&&&&&&&&&&&@@@+++++++++++++++@@@%%%@@@...   ",
"...@@@$$$&&&&&&&&&&&&&&&&&&&&&&&&&&&&&&@@@+++++++++++++++@@@%%%@@@...   ",
"...@@@$$$&&&&&&&&&&&&&&&&&&&&&&&&&&&&&&@@@+++++++++++++++@@@%%%@@@...   ",
"+++$$$&&&@@@+++...%%%$$$@@@...@@@%%%$$$&&&&&&&&&&&&$$$$$$$$$@@@......   ",
"+++$$$&&&@@@+++...%%%$$$@@@...@@@%%%$$$&&&&&&&&&&&&$$$$$$$$$@@@......   ",
"+++$$$&&&@@@+++...%%%$$$@@@...@@@%%%$$$&&&&&&&&&&&&$$$$$$$$$@@@......   ",
"@@@$$$@@@+++......***%%%$$$@@@.........@@@@@@@@@@@@@@@@@@+++......      ",
"@@@$$$@@@+++......***%%%$$$@@@.........@@@@@@@@@@@@@@@@@@+++......      ",
"@@@$$$@@@+++......***%%%$$$@@@.........@@@@@@@@@@@@@@@@@@+++......      ",
"+++$$$@@@......   ***@@@@@@$$$..............................+++...   ...",
"+++$$$@@@......   ***@@@@@@$$$..............................+++...   ...",
"+++$$$@@@......   ***@@@@@@$$$..............................+++...   ...",
"+++@@@@@@...............   .....................---------***...***   ...",
"+++@@@@@@...............   .....................---------***...***   ...",
"+++@@@@@@...............   .....................---------***...***   ...",
"++++++@@@$$$++++++++++++++++++   ......   ---@@@%%%$$$$$$@@@---...***...",
"++++++@@@$$$++++++++++++++++++   ......   ---@@@%%%$$$$$$@@@---...***...",
"++++++@@@$$$++++++++++++++++++   ......   ---@@@%%%$$$$$$@@@---...***...",
"...++++++@@@$$$$$$@@@@@@---@@@@@@%%%%%%%%%%%%@@@---++++++$$$---...   ***",
"...++++++@@@$$$$$$@@@@@@---@@@@@@%%%%%%%%%%%%@@@---++++++$$$---...   ***",
"...++++++@@@$$$$$$@@@@@@---@@@@@@%%%%%%%%%%%%@@@---++++++$$$---...   ***",
".........++++++@@@$$$$$$%%%%%%%%%@@@------------+++...+++@@@@@@......   ",
".........++++++@@@$$$$$$%%%%%%%%%@@@------------+++...+++@@@@@@......   ",
".........++++++@@@$$$$$$%%%%%%%%%@@@------------+++...+++@@@@@@......   "};
