/* XPM */
static char * C:\Users\user\Desktop\wall_1_xpm[] = {
"72 72 11 1",
" 	c #B0A860",
".	c #C0C870",
"+	c #F8F0A0",
"@	c #988850",
"#	c #807040",
"$	c #60B810",
"%	c #307838",
"&	c #685838",
"*	c #483038",
"=	c #E8E078",
"-	c #201800",
"      .....................      ...      ........................      ",
"      .....................      ...      ........................      ",
"      .....................      ...      ........................      ",
"   .........+++++++++......   ++++++++++++++++++++++++++++++++++++++++++",
"   .........+++++++++......   ++++++++++++++++++++++++++++++++++++++++++",
"   .........+++++++++......   ++++++++++++++++++++++++++++++++++++++++++",
"...........................               ++++++++++++++++++++++++++++++",
"...........................               ++++++++++++++++++++++++++++++",
"...........................               ++++++++++++++++++++++++++++++",
"@@@@@@@@@@@@      @@@@@@@@@......                           @@@   @@@###",
"@@@@@@@@@@@@      @@@@@@@@@......                           @@@   @@@###",
"@@@@@@@@@@@@      @@@@@@@@@......                           @@@   @@@###",
"   +++.......................................$$$$$$   @@@@@@   @@@@@@###",
"   +++.......................................$$$$$$   @@@@@@   @@@@@@###",
"   +++.......................................$$$$$$   @@@@@@   @@@@@@###",
"      ...............$$$$$$   ............$$$%%%%%%$$$   @@@@@@   @@@###",
"      ...............$$$$$$   ............$$$%%%%%%$$$   @@@@@@   @@@###",
"      ...............$$$$$$   ............$$$%%%%%%$$$   @@@@@@   @@@###",
"   +++   .........   %%%%%%%%%$$$%%%...$$$%%%%%%%%%%%%@@@   @@@@@@@@@###",
"   +++   .........   %%%%%%%%%$$$%%%...$$$%%%%%%%%%%%%@@@   @@@@@@@@@###",
"   +++   .........   %%%%%%%%%$$$%%%...$$$%%%%%%%%%%%%@@@   @@@@@@@@@###",
"   ......$$$$$$$$$%%%%%%%%%%%%%%%%%%%%%%%%%%%@@@@@@@@@@@@@@@@@@@@@@@@&&&",
"   ......$$$$$$$$$%%%%%%%%%%%%%%%%%%%%%%%%%%%@@@@@@@@@@@@@@@@@@@@@@@@&&&",
"   ......$$$$$$$$$%%%%%%%%%%%%%%%%%%%%%%%%%%%@@@@@@@@@@@@@@@@@@@@@@@@&&&",
"###            #####################&&&&&&************&&&&&&&&&###&&&&&&",
"###            #####################&&&&&&************&&&&&&&&&###&&&&&&",
"###            #####################&&&&&&************&&&&&&&&&###&&&&&&",
"@@@...===+++==================   &&&******&&&&&&&&&&&&@@@@@@@@@@@@###&&&",
"@@@...===+++==================   &&&******&&&&&&&&&&&&@@@@@@@@@@@@###&&&",
"@@@...===+++==================   &&&******&&&&&&&&&&&&@@@@@@@@@@@@###&&&",
"...===+++===============......   &&&***&&&@@@...   ...         @@@@@@###",
"...===+++===============......   &&&***&&&@@@...   ...         @@@@@@###",
"...===+++===============......   &&&***&&&@@@...   ...         @@@@@@###",
"...+++============............   &&&&&&@@@...   ...            @@@@@@###",
"...+++============............   &&&&&&@@@...   ...            @@@@@@###",
"...+++============............   &&&&&&@@@...   ...            @@@@@@###",
"@@@=========...   ...   ...      ***&&&@@@            @@@@@@@@@@@@@@@###",
"@@@=========...   ...   ...      ***&&&@@@            @@@@@@@@@@@@@@@###",
"@@@=========...   ...   ...      ***&&&@@@            @@@@@@@@@@@@@@@###",
"@@@===...                     @@@&&&###@@@   @@@@@@@@@@@@@@@@@@@@@@@@&&&",
"@@@===...                     @@@&&&###@@@   @@@@@@@@@@@@@@@@@@@@@@@@&&&",
"@@@===...                     @@@&&&###@@@   @@@@@@@@@@@@@@@@@@@@@@@@&&&",
"@@@@@@@@@@@@   @@@   @@@@@@@@@@@@&&&############@@@@@@@@@###@@@######&&&",
"@@@@@@@@@@@@   @@@   @@@@@@@@@@@@&&&############@@@@@@@@@###@@@######&&&",
"@@@@@@@@@@@@   @@@   @@@@@@@@@@@@&&&############@@@@@@@@@###@@@######&&&",
"@@@@@@@@@########################&&&########################&&&&&&&&&&&&",
"@@@@@@@@@########################&&&########################&&&&&&&&&&&&",
"@@@@@@@@@########################&&&########################&&&&&&&&&&&&",
"#########      @@@   @@@   @@@   @@@@@@######&&&&&&######@@@@@@@@@###&&&",
"#########      @@@   @@@   @@@   @@@@@@######&&&&&&######@@@@@@@@@###&&&",
"#########      @@@   @@@   @@@   @@@@@@######&&&&&&######@@@@@@@@@###&&&",
"@@@@@@   ........................   @@@@@@############@@@@@@@@@   ...@@@",
"@@@@@@   ........................   @@@@@@############@@@@@@@@@   ...@@@",
"@@@@@@   ........................   @@@@@@############@@@@@@@@@   ...@@@",
"@@@   ...........................   ...   ###&&&@@@@@@@@@@@@            ",
"@@@   ...........................   ...   ###&&&@@@@@@@@@@@@            ",
"@@@   ...........................   ...   ###&&&@@@@@@@@@@@@            ",
"      ........................   ...   @@@&&&###@@@@@@               @@@",
"      ........................   ...   @@@&&&###@@@@@@               @@@",
"      ........................   ...   @@@&&&###@@@@@@               @@@",
"   ......   ............      ...   ...@@@&&&@@@@@@   @@@         @@@   ",
"   ......   ............      ...   ...@@@&&&@@@@@@   @@@         @@@   ",
"   ......   ............      ...   ...@@@&&&@@@@@@   @@@         @@@   ",
"@@@   .........   ...   ......@@@   @@@###&&&######@@@   @@@   @@@   @@@",
"@@@   .........   ...   ......@@@   @@@###&&&######@@@   @@@   @@@   @@@",
"@@@   .........   ...   ......@@@   @@@###&&&######@@@   @@@   @@@   @@@",
"@@@      @@@......   ...   @@@   @@@@@@###&&&########################@@@",
"@@@      @@@......   ...   @@@   @@@@@@###&&&########################@@@",
"@@@      @@@......   ...   @@@   @@@@@@###&&&########################@@@",
"&&&*********------#####################&&&&&&&&&&&&&&&&&&&&&&&&&&&&&&&&&",
"&&&*********------#####################&&&&&&&&&&&&&&&&&&&&&&&&&&&&&&&&&",
"&&&*********------#####################&&&&&&&&&&&&&&&&&&&&&&&&&&&&&&&&&"};
